<svg width="26" height="26" viewBox="0 0 26 26" fill="none" xmlns="http://www.w3.org/2000/svg">
<path d="M18.4849 13.5786C18.4751 11.9136 19.2295 10.6587 20.7529 9.7334C19.9009 8.5127 18.6118 7.84131 16.9126 7.71191C15.3037 7.58496 13.5435 8.64941 12.8989 8.64941C12.2178 8.64941 10.6602 7.75586 9.43457 7.75586C6.90527 7.79492 4.21729 9.77246 4.21729 13.7959C4.21729 14.9849 4.43457 16.2129 4.86914 17.4775C5.4502 19.1426 7.54492 23.2222 9.72998 23.1562C10.8726 23.1294 11.6807 22.3457 13.1675 22.3457C14.6104 22.3457 15.3574 23.1562 16.6318 23.1562C18.8364 23.1245 20.731 19.416 21.2827 17.7461C18.3262 16.3521 18.4849 13.6641 18.4849 13.5786ZM15.9189 6.13232C17.1567 4.6626 17.0444 3.32471 17.0078 2.84375C15.9141 2.90723 14.6494 3.58838 13.9292 4.42578C13.1357 5.32422 12.6694 6.43506 12.7695 7.6875C13.9512 7.77783 15.0303 7.16992 15.9189 6.13232Z" fill="#313131"/>
</svg>
