<svg width="17" height="12" viewBox="0 0 17 12" fill="none" xmlns="http://www.w3.org/2000/svg">
<path d="M1 4.85352C0.585786 4.85352 0.25 5.1893 0.25 5.60352C0.25 6.01773 0.585786 6.35352 1 6.35352V4.85352ZM16.5303 6.13385C16.8232 5.84095 16.8232 5.36608 16.5303 5.07319L11.7574 0.300215C11.4645 0.00732136 10.9896 0.00732136 10.6967 0.300215C10.4038 0.593108 10.4038 1.06798 10.6967 1.36088L14.9393 5.60352L10.6967 9.84616C10.4038 10.139 10.4038 10.6139 10.6967 10.9068C10.9896 11.1997 11.4645 11.1997 11.7574 10.9068L16.5303 6.13385ZM1 6.35352H16V4.85352H1V6.35352Z" fill="white"/>
</svg>
