<svg width="26" height="26" viewBox="0 0 26 26" fill="none" xmlns="http://www.w3.org/2000/svg">
<path d="M23.2147 10.9605H22.3757V10.9173H13.0007V15.084H18.8876C18.0288 17.5095 15.721 19.2507 13.0007 19.2507C9.54909 19.2507 6.75065 16.4522 6.75065 13.0007C6.75065 9.54909 9.54909 6.75065 13.0007 6.75065C14.5939 6.75065 16.0434 7.35169 17.147 8.33346L20.0934 5.38711C18.2329 3.65326 15.7444 2.58398 13.0007 2.58398C7.24805 2.58398 2.58398 7.24805 2.58398 13.0007C2.58398 18.7533 7.24805 23.4173 13.0007 23.4173C18.7533 23.4173 23.4173 18.7533 23.4173 13.0007C23.4173 12.3022 23.3454 11.6204 23.2147 10.9605Z" fill="#FFC107"/>
<path d="M3.78467 8.15221L7.20706 10.6621C8.13311 8.3694 10.3758 6.75065 13.0003 6.75065C14.5935 6.75065 16.043 7.35169 17.1466 8.33346L20.093 5.38711C18.2326 3.65326 15.744 2.58398 13.0003 2.58398C8.99925 2.58398 5.52946 4.84284 3.78467 8.15221Z" fill="#FF3D00"/>
<path d="M13.001 23.4175C15.6916 23.4175 18.1364 22.3878 19.9848 20.7133L16.7609 17.9852C15.6799 18.8073 14.359 19.2519 13.001 19.2508C10.2916 19.2508 7.99108 17.5232 7.12441 15.1123L3.72754 17.7295C5.4515 21.1029 8.95254 23.4175 13.001 23.4175Z" fill="#4CAF50"/>
<path d="M23.2146 10.9602H22.3755V10.917H13.0005V15.0837H18.8875C18.4766 16.238 17.7366 17.2468 16.7588 17.9852L16.7604 17.9842L19.9843 20.7123C19.7562 20.9196 23.4172 18.2087 23.4172 13.0003C23.4172 12.3019 23.3453 11.6201 23.2146 10.9602Z" fill="#1976D2"/>
</svg>
