<svg width="108" height="40" viewBox="0 0 108 40" fill="none" xmlns="http://www.w3.org/2000/svg">
<path d="M0.136 31V0.199998H5.856V26.16H21.96V31H0.136ZM36.293 31.308C33.8877 31.308 31.7463 30.7947 29.869 29.768C27.9917 28.712 26.5103 27.2747 25.425 25.456C24.3397 23.6373 23.797 21.5693 23.797 19.252C23.797 16.9053 24.3397 14.8373 25.425 13.048C26.5103 11.2293 27.9917 9.80667 29.869 8.78C31.7463 7.75333 33.8877 7.24 36.293 7.24C38.7277 7.24 40.8837 7.75333 42.761 8.78C44.6677 9.80667 46.149 11.2147 47.205 13.004C48.2903 14.7933 48.833 16.876 48.833 19.252C48.833 21.5693 48.2903 23.6373 47.205 25.456C46.149 27.2747 44.6677 28.712 42.761 29.768C40.8837 30.7947 38.7277 31.308 36.293 31.308ZM36.293 26.6C37.6423 26.6 38.845 26.3067 39.901 25.72C40.957 25.1333 41.7783 24.2827 42.365 23.168C42.981 22.0533 43.289 20.748 43.289 19.252C43.289 17.7267 42.981 16.4213 42.365 15.336C41.7783 14.2213 40.957 13.3707 39.901 12.784C38.845 12.1973 37.657 11.904 36.337 11.904C34.9877 11.904 33.785 12.1973 32.729 12.784C31.7023 13.3707 30.881 14.2213 30.265 15.336C29.649 16.4213 29.341 17.7267 29.341 19.252C29.341 20.748 29.649 22.0533 30.265 23.168C30.881 24.2827 31.7023 25.1333 32.729 25.72C33.785 26.3067 34.973 26.6 36.293 26.6ZM64.7404 39.844C62.5697 39.844 60.443 39.5507 58.3604 38.964C56.307 38.4067 54.6204 37.5853 53.3004 36.5L55.7644 32.364C56.791 33.2147 58.0817 33.8893 59.6364 34.388C61.2204 34.916 62.819 35.18 64.4324 35.18C67.0137 35.18 68.9057 34.5787 70.1084 33.376C71.311 32.2027 71.9124 30.428 71.9124 28.052V23.872L72.3524 18.548L72.1764 13.224V7.504H77.4124V27.436C77.4124 31.6893 76.327 34.8133 74.1564 36.808C71.9857 38.832 68.847 39.844 64.7404 39.844ZM64.0364 29.944C61.807 29.944 59.783 29.4747 57.9644 28.536C56.175 27.568 54.7524 26.2333 53.6964 24.532C52.6697 22.8307 52.1564 20.836 52.1564 18.548C52.1564 16.2893 52.6697 14.3093 53.6964 12.608C54.7524 10.9067 56.175 9.58667 57.9644 8.648C59.783 7.70933 61.807 7.24 64.0364 7.24C66.031 7.24 67.8204 7.636 69.4044 8.428C70.9884 9.22 72.2497 10.452 73.1884 12.124C74.1564 13.796 74.6404 15.9373 74.6404 18.548C74.6404 21.1587 74.1564 23.3147 73.1884 25.016C72.2497 26.688 70.9884 27.9347 69.4044 28.756C67.8204 29.548 66.031 29.944 64.0364 29.944ZM64.8724 25.28C66.251 25.28 67.483 25.0013 68.5684 24.444C69.6537 23.8573 70.4897 23.0653 71.0764 22.068C71.6924 21.0413 72.0004 19.868 72.0004 18.548C72.0004 17.228 71.6924 16.0693 71.0764 15.072C70.4897 14.0453 69.6537 13.268 68.5684 12.74C67.483 12.1827 66.251 11.904 64.8724 11.904C63.4937 11.904 62.247 12.1827 61.1324 12.74C60.047 13.268 59.1964 14.0453 58.5804 15.072C57.9937 16.0693 57.7004 17.228 57.7004 18.548C57.7004 19.868 57.9937 21.0413 58.5804 22.068C59.1964 23.0653 60.047 23.8573 61.1324 24.444C62.247 25.0013 63.4937 25.28 64.8724 25.28ZM95.2032 31.308C92.7978 31.308 90.6565 30.7947 88.7792 29.768C86.9018 28.712 85.4205 27.2747 84.3352 25.456C83.2498 23.6373 82.7072 21.5693 82.7072 19.252C82.7072 16.9053 83.2498 14.8373 84.3352 13.048C85.4205 11.2293 86.9018 9.80667 88.7792 8.78C90.6565 7.75333 92.7978 7.24 95.2032 7.24C97.6378 7.24 99.7938 7.75333 101.671 8.78C103.578 9.80667 105.059 11.2147 106.115 13.004C107.2 14.7933 107.743 16.876 107.743 19.252C107.743 21.5693 107.2 23.6373 106.115 25.456C105.059 27.2747 103.578 28.712 101.671 29.768C99.7938 30.7947 97.6378 31.308 95.2032 31.308ZM95.2032 26.6C96.5525 26.6 97.7552 26.3067 98.8112 25.72C99.8672 25.1333 100.688 24.2827 101.275 23.168C101.891 22.0533 102.199 20.748 102.199 19.252C102.199 17.7267 101.891 16.4213 101.275 15.336C100.688 14.2213 99.8672 13.3707 98.8112 12.784C97.7552 12.1973 96.5672 11.904 95.2472 11.904C93.8978 11.904 92.6952 12.1973 91.6392 12.784C90.6125 13.3707 89.7912 14.2213 89.1752 15.336C88.5592 16.4213 88.2512 17.7267 88.2512 19.252C88.2512 20.748 88.5592 22.0533 89.1752 23.168C89.7912 24.2827 90.6125 25.1333 91.6392 25.72C92.6952 26.3067 93.8832 26.6 95.2032 26.6Z" fill="black" fill-opacity="0.3"/>
</svg>
